<?xml version="1.0" encoding="UTF-8" standalone="no"?>
<svg
   xmlns:dc="http://purl.org/dc/elements/1.1/"
   xmlns:cc="http://creativecommons.org/ns#"
   xmlns:rdf="http://www.w3.org/1999/02/22-rdf-syntax-ns#"
   xmlns:svg="http://www.w3.org/2000/svg"
   xmlns="http://www.w3.org/2000/svg"
   version="1.1"
   id="Capa_1"
   x="0px"
   y="0px"
   viewBox="0 0 326.36317 326.36317"
   xml:space="preserve"
   width="498.98303"
   height="498.98303"><metadata
     id="metadata41"><rdf:RDF><cc:Work
         rdf:about=""><dc:format>image/svg+xml</dc:format><dc:type
           rdf:resource="http://purl.org/dc/dcmitype/StillImage" /><dc:title></dc:title></cc:Work></rdf:RDF></metadata><defs
     id="defs39" /><path
     style="fill:#8100cc;fill-opacity:1;stroke:none;stroke-width:0.89999998;stroke-miterlimit:4;stroke-dasharray:none"
     d="M 249.49219 0 A 249.49155 249.49155 0 0 0 0 249.49219 A 249.49155 249.49155 0 0 0 249.49219 498.98242 A 249.49155 249.49155 0 0 0 498.98242 249.49219 A 249.49155 249.49155 0 0 0 249.49219 0 z M 313.16992 57.068359 C 320.29982 57.068359 326.87361 60.934012 330.32812 67.162109 L 352.99414 107.91406 L 375.14453 107.91406 C 393.17945 107.91406 407.85156 122.58618 407.85156 140.62109 L 407.85156 215.84766 L 424.20508 215.84766 L 424.20508 299.25 L 407.85156 299.25 L 407.85156 365.20703 C 407.85156 383.24195 393.17945 397.91406 375.14453 397.91406 L 119.48633 397.91406 C 101.45141 397.91406 86.779297 383.24195 86.779297 365.20703 L 86.779297 140.62109 C 86.779297 122.58618 101.45141 107.91406 119.48633 107.91406 L 216.65234 107.91406 L 303.63867 59.541016 C 306.54966 57.925721 309.84671 57.068359 313.16992 57.068359 z M 313.08398 70.185547 C 312.02484 70.184826 310.96257 70.437068 310.00391 70.974609 L 188.68164 138.4375 L 355.00195 138.4375 L 318.89453 73.513672 C 317.73013 71.412999 315.41411 70.187132 313.08398 70.185547 z M 119.48633 120.99609 C 108.6668 120.99609 99.861328 129.80157 99.861328 140.62109 L 99.861328 365.20703 C 99.861328 376.02656 108.6668 384.83203 119.48633 384.83203 L 375.14258 384.83203 C 385.9621 384.83203 394.76758 376.02656 394.76758 365.20703 L 394.76758 299.25781 L 346.93164 299.25781 C 324.71752 299.25781 306.63672 281.17803 306.63672 258.96289 L 306.63672 256.15039 C 306.63672 233.93627 324.7165 215.85547 346.93164 215.85547 L 394.76758 215.85547 L 394.76758 151.52734 L 377.24414 151.52734 L 138.22656 151.52734 L 123.57422 151.52734 C 119.95685 151.52734 117.0332 148.59563 117.0332 144.98438 C 117.0332 141.37312 119.95685 138.44336 123.57422 138.44336 L 161.75586 138.44336 L 193.12891 120.99609 L 119.48633 120.99609 z M 360.27539 120.99609 L 369.96875 138.44336 L 394.55273 138.44336 C 393.44737 128.65082 385.21799 120.99609 375.14453 120.99609 L 360.27539 120.99609 z M 346.93164 228.92969 C 331.92477 228.92969 319.71875 241.13672 319.71875 256.14258 L 319.71875 258.95508 C 319.71875 273.96195 331.92578 286.16797 346.93164 286.16797 L 407.85156 286.16797 L 411.12109 286.16797 L 411.12109 228.92969 L 407.85156 228.92969 L 346.93164 228.92969 z M 352.52344 243.64258 C 360.50424 243.64156 366.9668 250.11125 366.9668 258.08594 C 366.9668 266.06674 360.50322 272.5293 352.52344 272.5293 C 344.54264 272.5293 338.08008 266.06572 338.08008 258.08594 C 338.08008 250.10616 344.54366 243.64258 352.52344 243.64258 z "
     transform="matrix(0.65405659,0,0,0.65405659,9.9801115e-6,9.9801115e-6)"
     id="path3577" /><g
     id="g3"
     transform="matrix(0.66571794,0,0,0.66571794,55.639105,37.325856)"
     style="fill:#ffffff;fill-opacity:1" /><g
     id="g7"
     transform="translate(-2.9487557,-8.1812691)" /><g
     id="g9"
     transform="translate(-2.9487557,-8.1812691)" /><g
     id="g11"
     transform="translate(-2.9487557,-8.1812691)" /><g
     id="g13"
     transform="translate(-2.9487557,-8.1812691)" /><g
     id="g15"
     transform="translate(-2.9487557,-8.1812691)" /><g
     id="g17"
     transform="translate(-2.9487557,-8.1812691)" /><g
     id="g19"
     transform="translate(-2.9487557,-8.1812691)" /><g
     id="g21"
     transform="translate(-2.9487557,-8.1812691)" /><g
     id="g23"
     transform="translate(-2.9487557,-8.1812691)" /><g
     id="g25"
     transform="translate(-2.9487557,-8.1812691)" /><g
     id="g27"
     transform="translate(-2.9487557,-8.1812691)" /><g
     id="g29"
     transform="translate(-2.9487557,-8.1812691)" /><g
     id="g31"
     transform="translate(-2.9487557,-8.1812691)" /><g
     id="g33"
     transform="translate(-2.9487557,-8.1812691)" /><g
     id="g35"
     transform="translate(-2.9487557,-8.1812691)" /></svg>